<svg width="14" height="14" viewBox="0 0 14 14" fill="none" xmlns="http://www.w3.org/2000/svg">
<path d="M5.09615 12.8548V10.8102C5.09614 10.2921 5.51744 9.87115 6.03928 9.86789H7.9554C8.47957 9.86789 8.9045 10.2898 8.9045 10.8102V12.8488C8.90449 13.2982 9.26967 13.6634 9.72229 13.6667H11.0295C11.6401 13.6682 12.2262 13.4285 12.6584 13.0005C13.0907 12.5724 13.3337 11.9912 13.3337 11.385V5.57724C13.3336 5.0876 13.115 4.62315 12.7367 4.30901L8.29564 0.782856C7.51933 0.166092 6.41057 0.186016 5.65725 0.830266L1.31167 4.30901C0.915486 4.61389 0.678694 5.07972 0.666992 5.57724V11.3791C0.666992 12.6425 1.69858 13.6667 2.97111 13.6667H4.24852C4.46644 13.6682 4.67598 13.5834 4.83064 13.431C4.9853 13.2785 5.07228 13.0711 5.07227 12.8548H5.09615Z" fill="#5570F1"/>
</svg>